<?xml version="1.0" encoding="utf-8"?>
<!-- Generator: Adobe Illustrator 26.1.0, SVG Export Plug-In . SVG Version: 6.00 Build 0)  -->
<svg version="1.1" id="Layer_1" xmlns="http://www.w3.org/2000/svg" xmlns:xlink="http://www.w3.org/1999/xlink" x="0px" y="0px"
	 viewBox="0 0 250 250" style="enable-background:new 0 0 250 250;" xml:space="preserve">
<style type="text/css">
	.st0{fill:url(#SVGID_1_);}
</style>
<linearGradient id="SVGID_1_" gradientUnits="userSpaceOnUse" x1="111.413" y1="224.9379" x2="178.7047" y2="-18.7148" gradientTransform="matrix(1 0 0 1 0 52)">
	<stop  offset="0" style="stop-color:#812FCB"/>
	<stop  offset="0.192" style="stop-color:#9F3091"/>
	<stop  offset="0.414" style="stop-color:#D91F71"/>
	<stop  offset="0.69" style="stop-color:#FF1445"/>
	<stop  offset="1" style="stop-color:#ED7E65"/>
</linearGradient>
<path class="st0" d="M236.18,118.83c-16.87,1.54-31.25-3.79-44.31-12.5c-12.69-8.46-23.99-20.01-35.1-31.4l6.06-5.89
	c10.8,11.07,21.76,22.28,33.71,30.24c11.59,7.72,24.24,12.48,38.88,11.14L236.18,118.83z M87.98,103.26
	c12.02,0.41,23.54-0.91,32.46-4.56c4.9-2.01,8.96-4.72,11.81-8.21c2.74-3.37,4.38-7.58,4.55-12.72c0.18-5.02-1.02-10.95-3.86-17.88
	c-5.12-12.51-6.76-21.47-5.87-27.16c0.58-3.71,2.18-6.35,4.6-7.96c2.42-1.6,5.39-2.01,8.78-1.28c5.37,1.16,12.25,5.5,19.55,12.59
	c30.02,29.14,52.93,46.76,69.25,52.04c14.04,4.53,22.79-1.47,26.76-18.73l8.24,1.88c-5.37,23.34-17.67,31.32-37.59,24.89
	c-17.64-5.7-41.61-23.99-72.55-54.02c-6.14-5.96-11.56-9.52-15.44-10.37c-1.1-0.23-1.9-0.22-2.32,0.05
	c-0.42,0.28-0.74,0.99-0.92,2.2c-0.67,4.27,0.84,11.68,5.35,22.65c3.32,8.1,4.69,15.19,4.48,21.36c-0.25,7.13-2.56,13.01-6.44,17.78
	c-3.77,4.66-8.99,8.17-15.14,10.69c-10.09,4.14-22.82,5.64-35.93,5.19L87.98,103.26z M294.96,233.52H-45.81v-8.47h340.76V233.52z
	 M255.89,217.32H-6.74v-8.47h54.48c9.91-8.67,17.18-19.89,19.61-31.63c2.19-10.55,0.42-21.59-6.96-31.55
	c-5.59-7.57-9.63-14.75-12.03-21.55c-2.5-7.1-3.24-13.82-2.14-20.1c1.19-6.8,7.07-11.52,12.81-16.15
	c5.34-4.28,10.52-8.46,8.52-12.52c-1.24-2.52-4.61-4.42-8.06-6.38c-3.23-1.83-6.53-3.69-9.17-6.42c-6.79,0.99-10.45,2.27-15.96,5.98
	c0.83-16.72,4.45-27.04,23.69-29.14c3.91-6.63,13.88-7.7,24.86-8.88c15.44-1.65,22.82-4.72,34.28-14.22
	c-2.5,13.65-3.29,23.12,1.92,36.67c4.47,11.65,8.49,22.15-2.84,37.71l-6.82-4.96c8.62-11.83,5.36-20.31,1.76-29.73
	c-2.45-6.38-5.02-13.1-5.12-21.4c-6.75,2.68-14.77,3.53-22.27,4.34C74.41,39.93,66,40.83,65,44.49l-0.81,2.97
	c-7.04,0.35-14.6,1.09-18.94,7.58c2.95-0.88,5.87-1.06,8.92-1.17c2.64,3.55,5.58,5.57,9.45,7.76c4.61,2.61,9.1,5.15,11.5,10
	c4.98,10.13-2.8,16.38-10.8,22.82c-4.52,3.63-9.13,7.34-9.77,11.02c-0.84,4.83-0.23,10.12,1.78,15.83
	c2.12,6.01,5.76,12.47,10.83,19.33c8.95,12.1,11.1,25.48,8.45,38.27c-2.25,10.83-7.94,21.2-15.84,29.93h13
	c1.46-6.86,4.13-13.14,7.83-18.94c4.46-6.98,10.38-13.21,17.49-18.81l3.22-2.54l2.64,3.16c6.2,7.44,14.18,12.81,22.73,16.03
	c9.06,3.42,18.74,4.43,27.66,2.98l1.36,8.34c-10.35,1.68-21.56,0.53-32-3.42c-8.61-3.24-16.72-8.39-23.44-15.41
	c-5.05,4.36-9.3,9.07-12.55,14.18c-2.84,4.45-4.96,9.23-6.27,14.4h98.49c1.44-0.35,2.74-0.8,3.91-1.33c4.54-2.07,7.44-5.6,8.95-9.78
	c1.6-4.43,1.72-9.64,0.62-14.78c-0.54-2.53-1.36-5.01-2.42-7.34c-4.91-10.73-17.21-16.71-29.41-22.64
	c-17.96-8.73-35.73-17.36-35.5-40.65l8.44,0.07c-0.19,17.95,15.19,25.41,30.72,32.96c13.56,6.59,27.24,13.23,33.43,26.73
	c1.35,2.94,2.36,6,3.02,9.09c0.57,2.67,0.88,5.37,0.89,8.04c12.04,2.5,21.2,0.09,27.3-4.66c3.18-2.48,5.55-5.6,7.06-9.01
	c1.5-3.36,2.14-6.97,1.9-10.49c-0.41-5.93-3.42-11.52-9.23-14.86l4.2-7.35c8.49,4.86,12.88,13.01,13.47,21.63
	c0.34,4.84-0.56,9.85-2.62,14.5c-2.05,4.61-5.25,8.85-9.57,12.21c-7.77,6.06-19.06,9.25-33.45,6.45c-0.25,0.99-0.54,1.98-0.89,2.94
	c-1.09,3.02-2.68,5.8-4.8,8.24h59.94L255.89,217.32L255.89,217.32z M219.55,139.11c-12.96,0.55-24.31-2.88-34.61-8.73
	c-10.07-5.72-19.07-13.74-27.59-22.55l6.08-5.86c8.03,8.31,16.44,15.81,25.67,21.06c9.01,5.11,18.88,8.12,30.1,7.64L219.55,139.11z"
	/>
</svg>
